<?xml version="1.0" standalone="no"?>
<!DOCTYPE svg PUBLIC "-//W3C//DTD SVG 20010904//EN"
 "http://www.w3.org/TR/2001/REC-SVG-20010904/DTD/svg10.dtd">
<svg version="1.0" xmlns="http://www.w3.org/2000/svg"
 width="254.000000pt" height="254.000000pt" viewBox="0 0 254.000000 254.000000"
 preserveAspectRatio="xMidYMid meet">
<metadata>
Created by potrace 1.14, written by Peter Selinger 2001-2017
</metadata>
<g transform="translate(0.000000,254.000000) scale(0.100000,-0.100000)"
fill="#000000" stroke="none">
<path d="M761 2209 c-79 -26 -154 -94 -171 -159 -18 -68 -14 -75 59 -78 35 -2
77 2 93 7 24 9 30 7 35 -7 23 -70 59 -126 104 -160 27 -20 49 -41 49 -47 0 -7
11 -22 25 -35 32 -30 31 -36 -5 -44 -22 -4 -35 -15 -43 -35 -10 -24 -16 -28
-30 -19 -31 17 -50 2 -43 -33 3 -17 2 -28 -3 -24 -21 12 -43 -8 -38 -34 14
-69 17 -65 -52 -79 -42 -8 -79 -9 -105 -4 -96 20 -209 -52 -273 -174 -64 -123
-50 -142 53 -69 58 42 65 45 59 24 -46 -143 -52 -273 -17 -352 12 -28 27 -47
34 -45 7 3 20 29 29 59 46 154 225 390 349 460 22 13 43 33 46 45 6 24 34 46
73 59 19 6 30 0 58 -31 31 -34 34 -44 29 -79 -3 -26 -14 -48 -31 -62 -34 -30
-41 -29 -48 7 -12 57 -50 30 -81 -57 -8 -23 -23 -50 -34 -61 -18 -18 -19 -18
-28 2 -5 12 -17 22 -26 24 -22 4 -35 -28 -42 -103 -2 -31 -9 -62 -14 -68 -18
-22 -52 -121 -52 -152 0 -43 6 -48 91 -89 42 -20 84 -45 93 -55 16 -18 16 -20
-11 -39 -15 -11 -59 -33 -96 -50 -64 -30 -67 -32 -61 -59 10 -40 12 -43 39
-43 13 0 27 -5 30 -10 4 -6 25 -8 48 -6 23 3 78 8 122 11 152 11 179 25 225
119 41 82 18 135 -74 180 l-50 23 27 18 c27 17 28 17 53 -8 26 -26 100 -65
133 -70 26 -4 199 -124 216 -151 15 -23 29 -84 28 -128 0 -18 -14 -43 -37 -68
-59 -65 -43 -106 29 -76 45 19 45 19 45 4 0 -7 9 -28 21 -47 l20 -33 27 36
c36 47 55 52 97 26 48 -30 68 -21 60 26 -3 20 -8 40 -10 44 -3 5 -7 42 -8 82
-3 62 -10 85 -45 155 -23 45 -44 94 -46 110 -5 25 0 31 45 55 48 25 51 26 79
10 36 -21 47 -10 32 30 -6 18 -10 33 -8 35 1 2 31 -20 65 -47 89 -71 224 -141
253 -131 14 5 2 27 -70 123 -48 64 -94 129 -104 145 l-16 28 114 0 c90 0 117
3 129 16 15 14 13 18 -22 41 -52 35 -101 86 -124 131 -17 33 -18 40 -5 65 8
15 22 54 31 86 23 79 9 94 -43 43 -21 -20 -41 -37 -44 -37 -10 0 -47 119 -54
173 -4 27 -3 47 3 47 5 0 19 9 31 21 l22 20 -22 31 c-16 24 -18 30 -6 26 8 -4
35 -9 59 -13 40 -5 51 -2 114 37 38 24 69 48 69 53 0 19 -63 52 -126 66 -68
15 -279 19 -364 7 -56 -9 -206 -50 -260 -73 l-35 -14 -45 92 -45 92 23 8 c93
35 139 70 167 126 21 42 20 67 -6 87 -22 17 -79 34 -114 34 -38 0 -113 -25
-146 -48 -23 -16 -32 -18 -48 -9 -12 7 -72 12 -140 13 -81 1 -120 5 -121 13
-1 6 -2 15 -3 20 -1 12 -48 30 -91 35 -20 3 -62 -4 -99 -15z m1088 -756 c-16
-67 -25 -119 -28 -171 -1 -7 -5 -11 -11 -7 -5 3 -7 12 -4 20 7 17 -13 55 -29
55 -53 0 -34 67 37 132 28 26 52 48 52 48 1 0 -7 -35 -17 -77z m-230 -157 c9
-11 10 -20 1 -35 -6 -12 -10 -28 -8 -35 4 -18 -3 -19 -41 -11 -20 4 -38 21
-61 56 l-32 50 22 24 23 24 41 -29 c23 -15 48 -35 55 -44z"/>
</g>
</svg>
