<?xml version="1.0" standalone="no"?>
<!DOCTYPE svg PUBLIC "-//W3C//DTD SVG 20010904//EN"
 "http://www.w3.org/TR/2001/REC-SVG-20010904/DTD/svg10.dtd">
<svg version="1.0" xmlns="http://www.w3.org/2000/svg"
 width="256.000000pt" height="256.000000pt" viewBox="0 0 256.000000 256.000000"
 preserveAspectRatio="xMidYMid meet">
<metadata>
Created by potrace 1.14, written by Peter Selinger 2001-2017
</metadata>
<g transform="translate(0.000000,256.000000) scale(0.100000,-0.100000)"
fill="#000000" stroke="none">
<path d="M742 1907 c-103 -42 -177 -134 -170 -209 l3 -33 64 -3 c35 -2 77 2
93 7 24 9 30 7 35 -7 23 -70 59 -126 104 -160 27 -20 49 -41 49 -46 0 -5 11
-22 25 -36 l25 -26 -35 -13 c-23 -8 -37 -21 -41 -36 -5 -21 -9 -23 -26 -14
-29 16 -48 4 -48 -31 0 -23 -5 -30 -19 -30 -26 0 -31 -19 -16 -63 l12 -36 -55
-12 c-31 -6 -81 -8 -113 -5 -119 14 -222 -58 -298 -209 -33 -65 -34 -68 -16
-81 21 -15 15 -18 102 45 31 23 44 29 40 18 -21 -54 -39 -187 -35 -251 9 -128
65 -194 88 -103 37 147 210 383 342 468 27 18 56 45 64 61 9 17 31 36 51 45
l37 15 32 -39 c46 -53 43 -103 -10 -145 -20 -16 -21 -16 -32 15 -6 18 -17 32
-24 32 -18 0 -60 -61 -67 -97 -3 -15 -15 -36 -27 -47 l-23 -21 -11 25 c-24 52
-56 13 -70 -85 -6 -36 -22 -92 -36 -125 -30 -71 -34 -135 -8 -157 9 -8 33 -21
52 -28 66 -25 121 -62 118 -79 -2 -9 -41 -34 -88 -58 -80 -38 -85 -43 -85 -73
-1 -33 16 -55 37 -47 7 2 20 -1 28 -8 11 -9 43 -10 125 -4 162 12 209 24 241
62 34 41 63 104 64 139 0 35 -47 89 -100 113 -38 17 -39 19 -24 36 16 18 18
17 54 -11 40 -32 114 -69 140 -70 8 -1 58 -32 110 -69 103 -72 118 -97 122
-186 2 -35 -3 -49 -30 -79 -35 -41 -50 -82 -34 -98 7 -7 24 -6 56 5 l46 16 14
-33 c21 -51 35 -54 69 -13 34 43 43 44 92 16 49 -29 69 -20 61 29 -3 20 -10
75 -15 122 -7 69 -16 101 -48 165 -60 121 -61 130 -14 155 22 11 43 24 46 30
4 6 18 2 36 -11 40 -28 59 -14 42 31 -6 17 -9 30 -7 30 2 0 31 -22 65 -49 33
-27 96 -67 140 -90 130 -66 156 -53 81 42 -45 57 -137 184 -157 216 -6 10 -4
12 4 7 7 -5 54 -8 104 -8 91 1 147 12 147 31 0 6 -20 23 -43 40 -54 37 -99 87
-116 129 -12 29 -11 39 13 103 14 38 26 79 26 90 0 36 -29 34 -69 -5 l-38 -37
-22 74 c-37 127 -37 139 -2 160 37 22 38 26 9 63 -21 25 -21 27 -3 20 10 -4
37 -9 60 -12 35 -5 49 0 110 38 39 24 70 50 70 58 0 23 -74 57 -165 76 -147
29 -350 8 -540 -56 -46 -16 -85 -28 -86 -27 -1 1 -21 40 -43 87 l-41 84 58 27
c62 28 129 88 138 125 12 46 0 68 -46 92 -69 34 -151 26 -222 -22 -28 -18 -39
-21 -59 -13 -13 6 -77 11 -141 11 -105 1 -118 3 -118 18 0 24 -70 58 -117 57
-21 0 -62 -11 -91 -22z m922 -719 c-3 -13 -12 -34 -19 -47 l-12 -23 -21 27
c-28 36 -28 41 6 53 45 17 54 15 46 -10z m180 -31 c-7 -30 -18 -85 -23 -123
-4 -38 -9 -56 -10 -41 -1 20 -10 33 -35 48 -32 19 -33 21 -22 54 7 18 32 52
56 74 25 22 46 40 47 41 0 0 -5 -24 -13 -53z m-114 -37 c0 -8 -20 -59 -27 -69
-4 -6 -53 40 -53 50 0 8 46 27 68 28 6 1 12 -3 12 -9z m-182 -84 c15 -8 37
-25 49 -38 22 -24 22 -38 -3 -96 0 -1 -14 3 -30 8 -17 7 -41 30 -58 56 -27 43
-28 46 -11 64 22 24 19 24 53 6z m136 -149 c7 -7 13 -33 12 -57 -1 -46 47
-164 79 -196 19 -20 19 -35 0 -28 -8 4 -15 10 -15 15 0 5 -16 24 -36 41 -45
39 -73 96 -81 158 -8 72 9 100 41 67z m-248 -173 c3 -16 12 -39 20 -51 23 -36
16 -50 -12 -21 -19 18 -28 40 -31 74 -4 37 -3 46 6 38 7 -6 14 -24 17 -40z
m114 -583 c8 -16 5 -21 -22 -30 -39 -14 -44 -9 -23 23 21 31 31 33 45 7z m94
-9 c13 -25 12 -29 -9 -55 -30 -34 -31 -34 -38 0 -4 23 18 83 30 83 1 0 9 -12
17 -28z m114 -14 c11 -40 9 -43 -17 -28 -20 10 -28 40 -14 53 13 14 23 6 31
-25z"/>
</g>
</svg>
